<svg xmlns="http://www.w3.org/2000/svg" viewBox="0 0 340.16 144.44"><g id="Calque_2" data-name="Calque 2"><path d="M28.84 94.39c-.42.09-.88.16-1.26.26-2.62.67-5.78 1.14-8.85 1.63a55.16 55.16 0 0 1-9.6.64 15.59 15.59 0 0 1-5.9-1c-2-.86-3-1.8-2.66-2.82a18.32 18.32 0 0 1 1-3 13.37 13.37 0 0 1 2.1-2.25c.65-.65 1.31-1.3 2-2a6.41 6.41 0 0 1 1-.83c1.77-1.13 2.81-2.33 5.12-3.4a5.47 5.47 0 0 0 1.32-1 2 2 0 0 1 .62-.4 13.69 13.69 0 0 0 3.1-1.69c.21-.13.47-.27.71-.39.66-.36 1.3-.72 2-1.08 1-.55 2-1.1 3.12-1.64 1.65-.83 3.29-1.66 5.06-2.47 1.4-.64 3-1.24 4.47-1.87 1-.42 1.84-.87 2.78-1.3.27-.12.66-.23 1-.35 2-.8 4-1.61 6.38-2.35.82-.25 1.29-.58 2.06-.85 1.34-.46 2.73-.91 4.2-1.34 4.28-1.25 8.61-2.5 12.92-3.75.32-.09.73-.17 1.09-.25 1.68-.39 3.4-.78 5-1.19a3 3 0 0 0 1.07-.44c1-.86 1.93-1.73 2.91-2.6.75-.66 1.58-1.32 2.29-2 .27-.26.29-.53.48-.9-1 .11-1.72.16-2.33.25-4 .6-7.93 1.27-11.38 2.09-4.88 1.17-9.77 2.34-14.43 3.57Q39 61.54 32.62 63.68c-.45.15-.91.3-1.42.44a8.68 8.68 0 0 1-3.35.1 13.42 13.42 0 0 1-1.74-.41c-1.45-.46-1.32-.74.1-1.19 2.33-.75 4.59-1.51 6.82-2.28 2-.69 4-1.38 5.88-2.1s3.81-1.49 5.71-2.24c3.86-1.53 7.66-3.07 11.61-4.59 2.56-1 4.82-2 7.24-3 1.64-.68 3.37-1.34 5-2 1-.44 1.82-.91 2.77-1.37 1.93-.92 3.8-1.85 5.87-2.74 1.75-.75 3.27-1.54 5.05-2.28 2.67-1.11 4.82-2.28 7.23-3.42 1.33-.63 2.33-1.31 3.51-2 .5-.28 1.09-.54 1.65-.81 1.35-.65 2.77-1.28 4.05-1.93a19.83 19.83 0 0 0 2.53-1.49c1.28-.92 2.47-1.85 3.58-2.79s2-1.86 3-2.8c.5-.44 1.16-.87 1.68-1.32s1.25-1.14 1.91-1.7c.83-.72 1.72-1.44 2.55-2.16.41-.35.78-.71 1.14-1.06a16.6 16.6 0 0 1 1.73-1.45c1.09-.82 1.82-1.67 2.74-2.5.54-.49 1.18-1 1.75-1.47.21-.18.29-.38.53-.56.69-.49 1.52-1 2.14-1.49s1.16-1.15 1.85-1.71 1.4-.9 1.94-1.35 1.64-1.13 2.33-1.71a25.06 25.06 0 0 1 6.63-4.06c1.08-.46 2.42-.89 3.7-1.32a14.9 14.9 0 0 1 4.12-.42 5.11 5.11 0 0 1 1.28.14c1.56.57 2.54 1.2 2.14 1.94a20.73 20.73 0 0 1-3.27 4.07 57.85 57.85 0 0 1-6.94 6c-1.28 1-2.71 1.93-4.07 2.89-1.52 1.08-2.95 2.17-4.55 3.24-1.36.91-2.92 1.8-4.39 2.69l-2.22 1.38c-1.12.69-2.19 1.39-3.36 2.08-1.74 1-3.52 2-5.32 3-1.51.85-3.18 1.68-4.54 2.54a29.65 29.65 0 0 0-3.21 2.42c-1.63 1.37-3.1 2.75-4.7 4.12-.64.54-1.51 1.07-2.15 1.62a12.81 12.81 0 0 0-.89 1.07 2.5 2.5 0 0 1-1.48 1c-.12 0-.19.09-.19.13.11.87-1.58 1.61-2.31 2.42a11.24 11.24 0 0 1-1.2 1.07c-.24.19-.56.39-.85.58-.12.07-.34.14-.4.21a34.34 34.34 0 0 1-4.07 3.64 18.31 18.31 0 0 0-1.31 1.46 2 2 0 0 1-.46.37c-.39.23-.42.43.14.67 1.3.57.69 1.32-1.2 1.75a6.81 6.81 0 0 0-2.68 1c-.82.71-1.63 1.41-2.52 2.12-.6.46-1.34.92-2 1.38-.32.21-.42.4.29.61.41 0 .89 0 1.33-.09a86.46 86.46 0 0 1 15.25-.24 51.14 51.14 0 0 1 11.45 2 46.09 46.09 0 0 1 5.1 2.11l.66.24a4.13 4.13 0 0 0 2.38-.76 6.34 6.34 0 0 1 2.05-.95 3.6 3.6 0 0 0 .72-.28c1.37-1 3.77-1.81 5.5-2.73 3.41-1.82 6.89-3.64 10.31-5.46q2.89-1.53 5.69-3.08c.55-.3.9-.63 1.41-.94s1-.55 1.52-.82c.78-.42 1.61-.83 2.31-1.26 1.7-1 3.3-2.11 5-3.16 1.14-.72 2.38-1.42 3.53-2.13.41-.25.66-.52 1.06-.77.65-.42 1.29-.83 2.06-1.24a8.44 8.44 0 0 1 4.38-.12c1.57.46 2 1 1.28 1.57-1.13 1-2.14 2-3.12 2.94-1.47 1.48-2.85 3-4.31 4.44s-3.22 3.21-4.78 4.82c-.8.82-1.45 1.67-2.22 2.49-.46.5-1 1-1.52 1.5-.94 1-1.83 1.94-2.8 2.9-.64.64-1.43 1.27-2.08 1.91s-1.13 1.25-1.71 1.88c-.82.87-1.69 1.75-2.47 2.63s-1.71 2-2.59 3c-.21.24-.5.47-.73.7-.63.65-1.28 1.31-1.85 2s-1 1.23-1.46 1.85-.89 1.14-1.29 1.71c-.68.95-1.33 1.91-2 2.86-.17.23-.36.47-.64.83.73-.14 1.14-.21 1.51-.3a11.33 11.33 0 0 0 1.29-.34 80.41 80.41 0 0 1 10.33-2.52c1.61-.34 3.1-.72 4.73-1.06 2.17-.44 4.38-.87 6.64-1.27a6.73 6.73 0 0 0 2.52-.8 20.38 20.38 0 0 0 2.24-1.48 10.85 10.85 0 0 0 1.41-2c.59-.87 1.21-1.75 1.74-2.63.26-.43.3-.86.51-1.29a3.08 3.08 0 0 1 .6-.71c.88-.89 2.07-1.76 2.24-2.69 0-.14.18-.29.39-.42a4.92 4.92 0 0 0 1.7-2.1c.2-.31.75-.61 1.06-.91s1-.39.4-.63c-.08 0 0-.1.06-.14 1.23-.52 1.06-1.14 1.7-1.7a29.85 29.85 0 0 0 2.15-2.47c1-1.11 2.19-2.22 3.29-3.33.6-.61 1.19-1.21 1.8-1.82 1.38-1.36 2.7-2.72 4.18-4.07a23.25 23.25 0 0 1 3-2.28 9.91 9.91 0 0 1 3.39-1.5 8.59 8.59 0 0 1 4.92.15c1 .41 1.69.84 1.7 1.35a6.62 6.62 0 0 1-1.22 3.67c-.79 1.23-1.57 2.45-2.48 3.67s-2 2.56-3.15 3.83-2.52 2.83-4 4.23c-2.06 2-4.24 3.95-6.46 5.91-.76.68-1.84 1.34-2.71 2-1.07.82-2 1.65-3.15 2.46-1.35.95-2.91 1.87-4.32 2.82a14.07 14.07 0 0 0-1.36 1.14c5.25-.47 10.08-1 15.28-1.2s10.44-.14 15.9 0c.93-.54 1.91-1.09 2.84-1.64s2.1-1.27 3.07-1.91c1.22-.81 2.37-1.63 3.55-2.44a6.61 6.61 0 0 1 .91-.63c.71-.35.38-.68-.23-1s-1.16-.53-1.65-.81a19.76 19.76 0 0 1-2.28-1.37 30 30 0 0 1-2.81-2.4 6.91 6.91 0 0 1-1.85-3.53 6.94 6.94 0 0 1 .43-5.23 28.82 28.82 0 0 1 2.81-4.29 11.05 11.05 0 0 1 2.25-1.63c1.29-.89 2.53-1.78 3.94-2.65 1.08-.66 2.4-1.3 3.61-2a31.41 31.41 0 0 1 4.64-1.73 22.47 22.47 0 0 1 4.32-.95 19.34 19.34 0 0 1 8.25.58c2.15.78 3.43 1.66 3.82 2.64.86 2.17.38 4.33-.77 6.48a24.57 24.57 0 0 1-1.6 2.88c-1 1.36-2.13 2.72-3.27 4.07-.8.95-1.73 1.88-2.62 2.83a57.12 57.12 0 0 1-5.8 5c-.92.73-1.88 1.47-2.86 2.19-.28.21-.43.4 0 .61l5.38 2.25c.06 0 .2 0 .53.09.37-.15.82-.29 1.12-.45 1.85-1 3.66-2 5.51-3 1.44-.78 3-1.55 4.39-2.34s2.67-1.56 4-2.33l2.56-1.49c1.29-.76 2.59-1.52 3.67-2.31s2.87-1.74 4.28-2.62c.6-.37 1-.76 1.59-1.13s1.18-.64 1.68-1c1.41-.93 2.77-1.86 4.14-2.8 2.29-1.56 4.66-3.11 6.84-4.69a14.35 14.35 0 0 0 3.24-3 19 19 0 0 1 2.35-2.19 16.25 16.25 0 0 1 1.39-1.3c1.28-1 2.62-1.91 4-2.86a8.69 8.69 0 0 1 4.18-.28c1.88.34 2.6.8 2 1.38-1.43 1.3-2.95 2.6-4.43 3.9s-3.62 2.81-4.62 4.28c-.66 1-1.43 1.93-2.2 2.9a22.37 22.37 0 0 0-3.15 5.6c-.76 1.8-1.14 3.61-2 5.4-.53 1.08-.38 2.16-.62 3.24a33.31 33.31 0 0 0-.59 4.16c-.08.92 0 1.84 0 2.76a12.45 12.45 0 0 0 .84 3.86 11.76 11.76 0 0 0 1.5 3.31 7.34 7.34 0 0 0 2.93 2.79c1.21.64 1.88.68 3.94.21a38.49 38.49 0 0 0 6.47-2.21c1.58-.66 2.49-1.4 4-2.06 2.48-1.05 3.7-2.25 5.65-3.36a33.18 33.18 0 0 0 4.73-3.24c.76-.63 1.63-1.25 2.45-1.87 1.35-1 2.74-2.07 4-3.11 1-.83 1.94-1.67 2.9-2.5s1.72-1.45 2.5-2.18c1.18-1.1 2.29-2.21 3.43-3.32.13-.12.28-.24.4-.37.34-.34.66-.68 1-1 .12-.13.15-.26.33-.38C305.71 49 306 48 307 47s2-2.2 3.13-3.29a44.34 44.34 0 0 0 3.36-4c.91-1.09 1.87-2.18 2.74-3.27 1.51-1.9 3-3.79 4.42-5.69 1.65-2.24 3.19-4.48 4.74-6.72 1-1.44 1.9-2.89 2.87-4.34.84-1.26 1.71-2.52 2.55-3.77a6.31 6.31 0 0 1 .46-.86 3.07 3.07 0 0 1 1-.76 8.39 8.39 0 0 1 4.23-.11c2.36.62 3.31 1.39 3.07 2.25a41.47 41.47 0 0 1-1.41 4.2c-.6 1.51-1.36 3-2.06 4.52-.47 1-.94 2.07-1.42 3.11s-1 2.18-1.5 3.26c-.42.88-.92 1.76-1.29 2.64s-.46 1.61-.8 2.41-.87 1.69-1.27 2.54c-.15.32-.14.65-.27 1-.22.56-.5 1.13-.71 1.69-.34.91-.64 1.83-.95 2.74a28.73 28.73 0 0 1-1.33 3.91c-.81 1.65-.88 3.31-1.52 5-.42 1.08-.82 2.15-1.17 3.23-.14.43-.1.87-.22 1.3-.37 1.39-.8 2.8-1.17 4.19-.25.95-.4 1.9-.63 2.85-.33 1.37-.71 2.74-1.05 4.11s-.74 2.9-1 4.36c-.35 1.63-.6 3.26-.92 4.89-.27 1.35-.62 2.71-.87 4.07-.22 1.19-.32 2.39-.51 3.59-.12.78-.31 1.55-.44 2.33-.22 1.26-.43 2.52-.64 3.77v.29c-.33 1.59-.65 3.19-1 4.79-.27 1.19-.64 2.38-.9 3.58s-.31 2.13-.55 3.2a16 16 0 0 1-.65 1.87.38.38 0 0 0 0 .15 20.06 20.06 0 0 1-.75 5.56c-.13.68-.2 1.36-.36 2a34.54 34.54 0 0 0-.9 5.43c-.11 1.44-.44 2.87-.66 4.31-.19 1.18-.42 2.36-.55 3.54s-.08 2.2-.19 3.3c-.08.74-.32 1.48-.43 2.23a15.16 15.16 0 0 0-.16 2.28 3.5 3.5 0 0 1-.82 2.46c-.54.65-2.25 1.11-4.19 1a14.74 14.74 0 0 1-2.93-.44 7.71 7.71 0 0 1-3.72-2.07c-.33-.46-1-.9-1.26-1.35a12.21 12.21 0 0 1-.64-1.49c-.57-1.14-1.2-2.27-1.78-3.41-.21-.42-.34-.84-.58-1.25-1-1.79-2.11-3.58-3.09-5.37a56.33 56.33 0 0 0-6-8.49c-1-1.26-1.92-2.54-3.06-3.79-1.74-1.94-3.6-3.86-5.46-5.78-1.35-1.39-2.68-2.79-4.21-4.17-1.68-1.52-3.43-3-5.39-4.52-2.65-2-5.37-4-8.35-6-1.87-1.24-4.28-2.43-6.4-3.64a69.4 69.4 0 0 0-9-4.16c-3-1.18-6.35-2.29-9.65-3.41a86.5 86.5 0 0 0-8.48-2.39c-.54-.12-1.13-.23-1.86-.38-1 .45-1.83.87-2.82 1.27a40 40 0 0 1-6 1.94 40.7 40.7 0 0 1-8.14.85 39.79 39.79 0 0 1-5.76-.18c-.55-.07-1.16-.13-1.59-.23-2-.48-3.91-1-4.16-1.75a.6.6 0 0 1 .31-.76c.83-.5 1.89-1 2.88-1.45l2-.93 3.88-1.81c.12-.05.14-.12.25-.23-.52-.08-1-.16-1.55-.23l-2.54-.28c-1.37-.15-1.52-.14-2.27.23-.94.47-1.8 1-2.69 1.43-.3.16-.53.33-.86.48-2.69 1.23-4.84 2.53-7.34 3.78-3.25 1.63-6.67 3.23-10.56 4.76a75.42 75.42 0 0 1-8.07 2.8c-1.39.38-3 .71-4.54 1a28.43 28.43 0 0 1-5.46.48 10.1 10.1 0 0 1-1.56-.1 9.69 9.69 0 0 1-4.05-1.33 9 9 0 0 1-1.15-1.12c-.13-.15 0-.31 0-.47s.12-.13.07-.19A2.73 2.73 0 0 1 150 81c.28-.86.71-1.73 1.09-2.59.11-.25.29-.51-.5-.8-.72.31-1.37.58-2 .85-1.55.71-3 1.44-4.62 2.14-2.28 1-4.59 1.95-7.06 2.89a60.35 60.35 0 0 1-8.24 2.58 38.45 38.45 0 0 1-7.06.85 8.61 8.61 0 0 1-3.58-.57c-1.19-.46-2.23-1-2.38-1.54l-.28-.15c-1.42.13-1.62.46-1.89.76-1 1.12-1.91 2.24-2.88 3.36-.53.61-1.1 1.23-1.66 1.83-.24.27-.5.54-.79.8-1.1 1-2.18 2-3.32 3-.65.57-1.41 1.13-2.1 1.7-.5.4-.95.8-1.46 1.2l-3 2.28c-1 .76-1.65 1.42-2.63 2.12-1.21.86-2.63 1.7-3.88 2.56s-2.28 1.63-3.42 2.44l-.21.14c-.94.58-1.75 1.18-2.85 1.73-1.46.75-2.36 1.55-3.66 2.3-1.11.65-2.34 1.28-3.5 1.92-.95.52-1.8 1.06-2.8 1.58-3.25 1.68-6.49 3.36-9.85 5-1.55.77-3.37 1.5-5.11 2.24-2.59 1.11-5.21 2.22-7.82 3.33-.75.32-1.24.66-1.27 1a13 13 0 0 0-.24 2.13 7 7 0 0 0 .72 2.42 14.41 14.41 0 0 0 1.64 2.33 6.58 6.58 0 0 0 1.61 1.6 26.23 26.23 0 0 0 7.6 3.57 73.11 73.11 0 0 0 7.51 1.83c.83.16 1.74.3 2.68.41 2.37.29 4.82.54 7.17.85 1.91.24 4 .27 6 .39a167.21 167.21 0 0 0 19.79 0c4.87-.27 9.71-.58 14.38-1.09 4.08-.44 8-1 11.85-1.51 3.21-.46 6.19-1 9.21-1.57 2.27-.41 4.49-.84 6.65-1.29q2.51-.53 4.81-1.12c4.1-1.06 8.3-2.1 12.18-3.21 4.25-1.22 8.12-2.53 11.78-3.88 3.16-1.17 6.24-2.35 9-3.59q2.6-1.17 5.12-2.35c2.09-1 4.33-1.95 6.17-3 3-1.63 5.78-3.28 8.38-5a52.46 52.46 0 0 0 5.36-4 17.41 17.41 0 0 0 4.11-4.72 6 6 0 0 0 .95-4.3 7.18 7.18 0 0 0-2.15-3.58 15.83 15.83 0 0 0-6-3c-4-1.25-9.21-1.83-15.19-2-2.42-.06-4.87 0-7.3 0h-4.88c-.83 0-1.64.1-2.48.11-2.26 0-2.33 0-3.13-.62a13.79 13.79 0 0 1 1.81-.42c2-.24 3.84-.53 6-.69a112.39 112.39 0 0 1 16.23.09A65.52 65.52 0 0 1 209 92.27a42.76 42.76 0 0 1 6.1 1.72c3.32 1.42 5.81 2.94 7 4.61a6 6 0 0 1 1.23 5 11.41 11.41 0 0 1-1.08 2.3 15.58 15.58 0 0 1-1 1.58 6.36 6.36 0 0 1-.85 1c-1.15 1.11-2.23 2.22-3.54 3.31s-2.59 1.94-3.94 2.91c-.25.18-.69.34-1 .52-.55.37-1 .75-1.58 1.12-.73.46-1.55.91-2.33 1.37s-1.8 1.06-2.77 1.58c-1.26.68-2.53 1.36-3.88 2-2.09 1-4.12 2.09-6.42 3.09-2.59 1.13-5.42 2.23-8.19 3.33-1.59.63-3.26 1.25-4.95 1.86-1.44.52-2.95 1-4.48 1.53-2.18.72-4.35 1.43-6.61 2.13-1.91.59-3.89 1.16-5.91 1.72-1.18.33-2.53.61-3.79.91l-6.18 1.51c-4 1-8.46 1.74-12.86 2.54-4.22.77-8.73 1.42-13.33 2-2.39.31-5 .51-7.49.76l-.87.08a239.79 239.79 0 0 1-25.22 1.2c-4.48 0-8.89-.17-13.17-.51-4.08-.33-8.09-.71-11.89-1.23l-.95-.14-5.26-.94c-.64-.12-1.24-.26-1.8-.4-1.52-.39-3.12-.77-4.52-1.19a38.14 38.14 0 0 1-7-2.82c-.54-.29-1-.58-1.57-.87a3.47 3.47 0 0 1-1.47-1.14c-.08-.18-.46-.36-.71-.54a4.35 4.35 0 0 1-.92-.68c-.62-1-2-2-2.08-3-.07-.61-.75-1.21-.66-1.83 0-.05-.18-.11-.38-.22-1.3.32-2.56.59-3.66.9a58.42 58.42 0 0 1-7.94 1.66c-1.24.18-2.38.39-3.64.55a35.61 35.61 0 0 1-11.4-.47 16.39 16.39 0 0 1-5.71-2.44 4.92 4.92 0 0 1-2.23-3.91 8.17 8.17 0 0 1 .61-4.51c.39-.86.56-1.74 1-2.6a6.26 6.26 0 0 1 1-1.13A1.52 1.52 0 0 0 11 116a9.92 9.92 0 0 1 .59-1.78c.2-.38.8-.74 1.16-1.11.71-.73.69-1.5 1.13-2.24a8.48 8.48 0 0 1 1.38-1.25 5.18 5.18 0 0 0 .43-.61c.43-.52.91-1 1.31-1.55.71-.92 1.31-1.84 2.08-2.75s1.54-1.57 2.24-2.35c.89-1 1.63-2 2.55-3 .67-.73 1.51-1.46 2.26-2.19a8.19 8.19 0 0 1 .56-.61c.32-.27.8-.54 1.09-.81.46-.43.83-.87 1.25-1.3l-.23-.06m97-79.09a1.76 1.76 0 0 0 1.27-.29 13.14 13.14 0 0 1 2-1.53 14.88 14.88 0 0 0 2.33-1.93c.56-.48 1.11-1 1.74-1.42s1.42-.92 2-1.39c.82-.64 1.54-1.29 2.25-1.94.13-.12 0-.26 0-.39h-.41c-.75.51-1.56 1-2.26 1.52-1.24.89-2.46 1.78-3.6 2.68s-2.36 1.9-3.45 2.85c-.7.62-1.27 1.24-1.89 1.86-.52.33-1.07.65-1 1 .6-.32 1.36-.63 1-1m127.53 34.31h-.37a9.46 9.46 0 0 0-.9.44c-.76.49-1.44 1-2.21 1.48-2.09 1.35-4.15 2.69-6.32 4-1.42.87-3 1.73-4.5 2.59s-2.66 1.7-4.12 2.53c-2.32 1.32-4.74 2.62-7.15 3.92-1.71.93-3.44 1.85-5.21 2.77-.48.25-.48.46-.12.73a15.4 15.4 0 0 1 2.52 2.33 2.47 2.47 0 0 1-.05 3.42c-.23.29.08.49.92.68a131.76 131.76 0 0 1 15.2 4.32c2.53.89 4.91 1.81 7.25 2.73 2.1.83 4.22 1.67 6 2.54q3.74 1.81 7 3.68c2.31 1.32 4.45 2.66 6.5 4 1.77 1.17 3.35 2.35 4.91 3.55 1.39 1.07 2.66 2.14 3.93 3.22 1.59 1.36 3.19 2.72 4.66 4.09s2.62 2.61 3.9 3.93c1 1 1.9 2 2.8 3 1.33 1.47 2.66 2.95 3.93 4.43s2.32 2.71 3.35 4.08 1.88 2.69 2.78 4c.58.88 1.13 1.75 1.67 2.63s1.05 1.72 1.6 2.58a2 2 0 0 0 .39.33c.31-.09.41-.16.42-.24.24-1.28.48-2.55.69-3.83.26-1.6.43-3.2.74-4.8.27-1.42.68-2.84 1-4.26.24-1.07.4-2.14.63-3.2s.6-2.32.83-3.49.34-2.52.62-3.77c.42-1.82 1-3.65 1.42-5.47.45-2.05.75-4.1 1.15-6.16.32-1.69.7-3.39 1-5.08.2-1 .34-1.91.55-2.86.1-.47.34-.93.42-1.4.14-.82.16-1.65.3-2.47.11-.66.36-1.33.48-2 .36-1.82.64-3.65 1-5.47.25-1.18.64-2.35.94-3.53.19-.72.31-1.45.51-2.18.34-1.21.76-2.42 1.08-3.63.37-1.42.65-2.84 1-4.26s.8-3 1.21-4.45c.34-1.21.67-2.42 1.06-3.62.34-1 .8-2 1.13-3 .43-1.3.74-2.61 1.18-3.92.33-1 .76-2 1.14-2.93.23-.61.45-1.22.69-1.83.3-.79.6-1.57.91-2.37.09-.24.27-.48.35-.72.24-.7.45-1.39.67-2.09a20.62 20.62 0 0 0-2.63 2.71c-.43.48-1.14 1-1.39 1.44a7.33 7.33 0 0 1-1.38 1.88c-.27.27-.69.52-.85.79a13.33 13.33 0 0 1-2.54 3.35c-.24.21-.55.42-.75.63s-.52.66-.81 1-.59.52-.79.78a4.56 4.56 0 0 1-2 1.9c-.17.08-.19.18-.26.28a22.69 22.69 0 0 1-1.74 2.26c-1.28 1.33-2.72 2.64-4.12 4-1 1-2 1.91-3.13 2.87s-2.33 2-3.57 3c-.61.5-1.4 1-2.05 1.49-1.29 1-2.44 2-3.82 3-1.83 1.3-3.77 2.58-5.77 3.86-1.11.71-2.42 1.4-3.67 2.1s-2.27 1.25-3.49 1.86c-.65.33-1.52.62-2.26.93-1 .41-1.82.84-2.87 1.23a29.9 29.9 0 0 1-5.53 1.47 22.91 22.91 0 0 1-6.4.29 26.26 26.26 0 0 1-4.22-.82 8.6 8.6 0 0 1-4-2.2 11 11 0 0 1-2.66-3.7 30.23 30.23 0 0 1-1-3.53 19.28 19.28 0 0 1-.45-3.1c-.08-1.18 0-2.36 0-3.54a10.55 10.55 0 0 1 .23-1.64c.09-.46.26-.92.35-1.38.21-1.1.32-2.19.58-3.29.14-.59.55-1.17.75-1.76.31-.9.54-1.8.79-2.69a1.58 1.58 0 0 0 0-.46M110.47 66.77c-.52.15-.84.22-1.07.31l-2.61 1c-1.22.5-2.45 1-3.62 1.51-1.46.63-2.82 1.27-4.3 1.9s-2.95 1.18-4.44 1.76c-2.62 1-5.22 2.07-7.87 3.1-.82.32-1.79.61-2.62.93-2.08.79-4.09 1.59-6.2 2.38-1.41.52-2.91 1-4.41 1.52s-3.11 1-4.6 1.51-2.9 1.08-4.46 1.59c-3.21 1.06-6.41 2.12-9.79 3.14-4.14 1.29-8.48 2.5-12.68 3.74-1.22.35-2.63.67-2.84 1.21-.08.2-.43.4-.64.6-1.11 1-2.74 2-3.22 3.11a.3.3 0 0 1-.19.13c-1.05.35-1 .78-1.33 1.19a3.32 3.32 0 0 1-.36.48c-1 .95-2 1.89-2.92 2.85-.66.67-1.18 1.35-1.81 2-.88.94-2 1.87-2.7 2.81-1.3 1.68-2.39 3.37-3.61 5-.94 1.3-2.41 2.57-2.72 3.9a8.23 8.23 0 0 1-.66 1.56c-.85 1.83-2 3.64-2.44 5.48s-.64 3.47.53 5.19a5 5 0 0 0 2.14 2.1 9.58 9.58 0 0 0 4.41.68c1.4-.11 2.8-.25 4-.43a54.36 54.36 0 0 0 8.82-2.09c2.15-.71 4.31-1.4 6.4-2.12a2.44 2.44 0 0 0 1.16-.65 12.34 12.34 0 0 0 .72-1.73 3.47 3.47 0 0 1 1.66-1.93c.17-.1.2-.22.15-.33-.32-.74.42-1.44 1.09-2.15s1.76-1.52 2.35-2.28a28.07 28.07 0 0 1 3-2.9c.48-.45 1-.9 1.51-1.34a13.41 13.41 0 0 1 3.59-2.5 3.71 3.71 0 0 0 .64-.46c1.16-.8 2.29-1.6 3.5-2.39.79-.52 1.72-1 2.54-1.54 1.16-.73 2.21-1.47 3.43-2.19q2.29-1.34 4.8-2.66c2.94-1.54 5.94-3.08 9-4.61 1.25-.63 2.59-1.24 3.9-1.86.89-.42 1.77-.85 2.71-1.26 1.34-.59 2.74-1.18 4.1-1.77.41-.18.74-.37 1.18-.54 1.1-.43 2.26-.84 3.34-1.27 3.18-1.26 6.32-2.53 9.46-3.79a2 2 0 0 0 .63-.35 12.15 12.15 0 0 0 1.28-1.56 26.38 26.38 0 0 0 1.39-2.54 22.83 22.83 0 0 0 1.33-3.21 13.39 13.39 0 0 0 .73-6.74 5.34 5.34 0 0 1-.28-1.26 3.78 3.78 0 0 0-1.1-2.25m-65.7 20.48c.5-.09.78-.12 1-.18 1.85-.49 3.23-1.11 5.35-1.54a14.93 14.93 0 0 0 1.88-.64c.66-.21 1.44-.39 2.08-.61 2.47-.81 4.9-1.64 7.37-2.46 2.21-.73 4.52-1.44 6.66-2.19 3.55-1.23 7.15-2.45 10.47-3.73 5.22-2 10.27-4 15.33-6.08 2.71-1.09 5.3-2.2 7.93-3.31 1.3-.54 2.61-1.09 3.84-1.65.9-.41 1.67-.84.4-1.31-.1 0-.12-.09-.19-.14A25.21 25.21 0 0 0 98 60.26a42.75 42.75 0 0 0-9-.8c-1.86 0-3.71.16-5.52.29-3 .21-5.69.57-8.33 1-1.11.17-1.74.4-1.91.77s-.69.61-1.05.91c-.68.57-1.4 1.13-2 1.69s-1.09 1.12-1.75 1.67-1.82 1-1.81 1.61c0 .06-.21.11-.29.18-.67.53-1.37 1.07-2 1.61s-1.28 1.2-2 1.8c-1 .83-2.17 1.64-3.09 2.48-1.25 1.1-2.25 2.24-3.45 3.37s-2.32 2-3.47 3-2.65 1.74-2.76 2.69c0 0-.12.05-.16.09a14.26 14.26 0 0 0-1.31.84c-.63.51-1.45 1-1.68 1.53a4.43 4.43 0 0 1-1.63 1.68c-.2.14 0 .33 0 .56m19.14-23.91c-.43.06-.79.09-1 .15l-3.52 1c-5.51 1.56-10.54 3.23-15.06 5-3.9 1.52-7.51 3.1-11 4.68-2.81 1.28-5.34 2.61-7.8 3.95a77.78 77.78 0 0 0-11.32 7.29 31.1 31.1 0 0 0-2.95 2.5C10 89.2 8.74 90.55 8.57 92a5.68 5.68 0 0 0 .13 2.18c.14.5.59.56 2.48.52.42 0 .87 0 1.25-.06 1.62-.19 3.31-.34 4.81-.58 2.54-.41 5.06-.85 7.4-1.33 2.67-.56 5.16-1.18 7.66-1.8a3.72 3.72 0 0 0 1.21-.58c.23-.15.24-.32.41-.47 1.73-1.56 3.43-3.12 5.22-4.68 1.52-1.32 3.34-2.63 4.66-4 1.14-1.16 2.67-2.28 4-3.41.92-.79 1.87-1.57 2.75-2.36.67-.6 1.26-1.2 1.88-1.81s1.27-1.37 2.09-2c1-.86 2.32-1.69 3.42-2.54a13.12 13.12 0 0 0 .92-1c.74-.68 1.57-1.35 2.3-2 .93-.87 1.8-1.76 2.75-2.69m156.5-25.89a13.58 13.58 0 0 0-3.15.57 28.86 28.86 0 0 0-7.08 3.15c-3.06 1.91-5.49 3.86-6.7 5.92a13.13 13.13 0 0 0-1.77 4.38 8 8 0 0 0 .46 3.92 9.87 9.87 0 0 0 3.47 4.3 15.24 15.24 0 0 0 1.33.83h.43a10 10 0 0 0 .86-.57c1.27-1 2.57-2.09 3.74-3.14a45.61 45.61 0 0 0 4-3.82 40.08 40.08 0 0 0 4.86-6.36 16.92 16.92 0 0 0 1.79-4.19 4.23 4.23 0 0 0-1.32-4.43 7.42 7.42 0 0 0-.92-.57m-62.22 47.44a22.62 22.62 0 0 0 3.88-.7 67.1 67.1 0 0 0 6.48-2.09 91.88 91.88 0 0 0 8.94-3.77c2.23-1 4.25-2.1 6.31-3.17s3.77-2 5.62-3a3.56 3.56 0 0 0 .63-.51c-.44 0-.7-.08-1-.09-2.66-.15-5.34-.11-8 0a185.3 185.3 0 0 0-19.91 1.68c-.91.13-1.35.3-1.46.57-.29.67-.65 1.34-.91 2-.46 1.24-1 2.48-1.29 3.72-.28 1.06-.28 2.13-.51 3.2-.15.67.58 1.31.76 2 0 .05.23.1.43.19m-56.1 5h-.28c-.55.18-1.17.34-1.64.54-1.17.49-2.32 1-3.4 1.49-2.42 1.12-4.87 2.23-7.18 3.37C86.8 96.63 84 98 81.43 99.42a134.22 134.22 0 0 0-11.51 6.91c-.68.45-1.32.9-2 1.35-1.14.78-2.33 1.56-3.41 2.35-1.35 1-2.61 2-3.92 3a12.29 12.29 0 0 0-1.24 1c-.81.81-1.53 1.62-2.3 2.43-.19.2-.44.4-.6.61q-.69.85-1.32 1.71c-.25.34-.44.68-.72 1.11a9.76 9.76 0 0 0 1.06-.22c.68-.27 1.36-.53 1.95-.82 2.34-1.13 4.73-2.26 6.95-3.41 3.41-1.77 6.72-3.56 10-5.34 1.41-.76 2.68-1.55 4-2.33.66-.4 1.18-.82 1.84-1.21 1.28-.78 2.71-1.54 3.91-2.33q3-2 5.68-3.93c2.25-1.64 4.53-3.28 6.55-4.94s3.83-3.41 5.71-5.12c.09-.08 0-.18 0-.27M142 51.37h-.37c-1.54.77-3.12 1.55-4.62 2.33-2.55 1.34-5 2.69-7.61 4-1.36.7-3 1.36-4.44 2-1.15.55-2.19 1.12-3.32 1.67-1.92.94-3.87 1.86-5.8 2.79-.46.22-.57.44-.34.7.9 1 2 2 2.23 3a21.78 21.78 0 0 1 .87 3.53 21 21 0 0 1-.25 3.73c-.05.55-.2 1.1-.29 1.65 0 .05.1.11.16.17a2.29 2.29 0 0 0 1.09-.59c.42-.51.71-1 1.13-1.52 1.09-1.32 2.16-2.65 3.35-4 1.48-1.65 3.1-3.29 4.62-4.93.95-1 1.84-2 2.75-3.06.32-.36.61-.72 1-1.08 1.1-1.12 2.23-2.24 3.36-3.36l2.33-2.33c.58-.57 1.19-1.14 1.72-1.72.26-.28.34-.57.59-.86.5-.56 1.08-1.12 1.59-1.68a2.28 2.28 0 0 0 .3-.55m-83 2.52l.28.06 4.41-.82c3.26-.5 6.5-1.02 10.26-1.4 2.4-.22 4.54-.48 4.89-1.25 0-.11.32-.21.43-.32.74-.73 1.41-1.47 2.21-2.19 1.17-1.05 2.42-2.1 3.68-3.14.33-.28.9-.53 1.21-.81.59-.51 1.06-1 1.59-1.54l2-1.93-.43-.05-7.31 3.39c-2.48 1.15-4.94 2.3-7.51 3.43s-5.24 2.22-7.76 3.34-5.49 2.19-7.9 3.33M145 76.3l-.34-.08c-.36.05-.77.09-1.08.16-2.24.52-4.57 1-6.66 1.58-4 1.08-7.87 2.21-11.83 3.3-1.33.37-2.17.77-2.19 1.29s-.2 1.1-.16 1.65c0 .36.82.44 1.94.23.54-.1 1-.23 1.49-.36a63.38 63.38 0 0 0 8-2.76c1.69-.69 3.3-1.39 4.86-2.1 1.77-.81 3.44-1.63 5.13-2.45.31-.15.58-.31.86-.46M208.7 65a17.76 17.76 0 0 0-2 1.16 67.63 67.63 0 0 1-6.2 3.91c-.53.34-.43.48.81.59 1.65.15 3.34.28 5.24.44.77-.36 1.57-.72 2.31-1.08 1.63-.79 3.22-1.59 4.86-2.39.43-.2.39-.38 0-.58a33.73 33.73 0 0 0-5-2m1.28 8.43c-.45.19-.79.32-1.09.46l-4.71 2.19c-1 .45-2 .89-2.86 1.35-.7.35-.3.56 1.22.57a30.55 30.55 0 0 0 7.67-.72 33.42 33.42 0 0 0 5.41-2c1.21-.53 1-.72-.83-1.08-1-.2-2.09-.39-3.17-.57-.45-.08-1-.12-1.64-.2m7.77-3.6a23.66 23.66 0 0 0-4.43 2.12 30 30 0 0 0 4.87.88c1.16-1 .95-2-.41-3m-38.31-19.95h-.44c-.54.51-1.12 1-1.62 1.52-1.13 1.15-2.23 2.32-3.34 3.47-1.31 1.37-2.61 2.72-3.9 4.09-.12.13-.3.26.21.42a65.41 65.41 0 0 0 9.09-9.46" stroke="#000" stroke-miterlimit="10" id="Calque_1-2" data-name="Calque 1"/></g></svg>